<mxfile host="app.diagrams.net" agent="Mozilla/5.0 (Windows NT 10.0; Win64; x64) AppleWebKit/537.36 (KHTML, like Gecko) Chrome/130.0.0.0 Safari/537.36 OPR/115.0.0.0" version="26.0.7">
  <diagram name="PÃ¡gina-1" id="Q7C1ZNsz_t4TPiqAThZ-">
    <mxGraphModel dx="1390" dy="761" grid="1" gridSize="10" guides="1" tooltips="1" connect="1" arrows="1" fold="1" page="1" pageScale="1" pageWidth="827" pageHeight="1169" math="0" shadow="0">
      <root>
        <mxCell id="0" />
        <mxCell id="1" parent="0" />
        <mxCell id="-D1oLmt3yiWV7h7ndBA1-1" value="INICIO" style="strokeWidth=2;html=1;shape=mxgraph.flowchart.start_1;whiteSpace=wrap;" vertex="1" parent="1">
          <mxGeometry x="340" y="20" width="100" height="60" as="geometry" />
        </mxCell>
        <mxCell id="-D1oLmt3yiWV7h7ndBA1-2" value="FIM" style="strokeWidth=2;html=1;shape=mxgraph.flowchart.start_1;whiteSpace=wrap;" vertex="1" parent="1">
          <mxGeometry x="340" y="480" width="100" height="60" as="geometry" />
        </mxCell>
        <mxCell id="-D1oLmt3yiWV7h7ndBA1-3" value="cotacao" style="html=1;strokeWidth=2;shape=manualInput;whiteSpace=wrap;rounded=1;size=26;arcSize=11;" vertex="1" parent="1">
          <mxGeometry x="340" y="100" width="100" height="60" as="geometry" />
        </mxCell>
        <mxCell id="-D1oLmt3yiWV7h7ndBA1-8" style="edgeStyle=orthogonalEdgeStyle;rounded=0;orthogonalLoop=1;jettySize=auto;html=1;entryX=0.5;entryY=0;entryDx=0;entryDy=0;" edge="1" parent="1" source="-D1oLmt3yiWV7h7ndBA1-4" target="-D1oLmt3yiWV7h7ndBA1-7">
          <mxGeometry relative="1" as="geometry" />
        </mxCell>
        <mxCell id="-D1oLmt3yiWV7h7ndBA1-4" value="valor" style="html=1;strokeWidth=2;shape=manualInput;whiteSpace=wrap;rounded=1;size=26;arcSize=11;" vertex="1" parent="1">
          <mxGeometry x="340" y="190" width="100" height="60" as="geometry" />
        </mxCell>
        <mxCell id="-D1oLmt3yiWV7h7ndBA1-5" style="edgeStyle=orthogonalEdgeStyle;rounded=0;orthogonalLoop=1;jettySize=auto;html=1;entryX=0.5;entryY=0.233;entryDx=0;entryDy=0;entryPerimeter=0;" edge="1" parent="1" source="-D1oLmt3yiWV7h7ndBA1-1" target="-D1oLmt3yiWV7h7ndBA1-3">
          <mxGeometry relative="1" as="geometry" />
        </mxCell>
        <mxCell id="-D1oLmt3yiWV7h7ndBA1-6" style="edgeStyle=orthogonalEdgeStyle;rounded=0;orthogonalLoop=1;jettySize=auto;html=1;entryX=0.5;entryY=0.267;entryDx=0;entryDy=0;entryPerimeter=0;" edge="1" parent="1" source="-D1oLmt3yiWV7h7ndBA1-3" target="-D1oLmt3yiWV7h7ndBA1-4">
          <mxGeometry relative="1" as="geometry" />
        </mxCell>
        <mxCell id="-D1oLmt3yiWV7h7ndBA1-7" value="valor = valor / cotacao" style="rounded=1;whiteSpace=wrap;html=1;absoluteArcSize=1;arcSize=14;strokeWidth=2;" vertex="1" parent="1">
          <mxGeometry x="295" y="290" width="190" height="40" as="geometry" />
        </mxCell>
        <mxCell id="-D1oLmt3yiWV7h7ndBA1-10" value="valor" style="strokeWidth=2;html=1;shape=mxgraph.flowchart.display;whiteSpace=wrap;" vertex="1" parent="1">
          <mxGeometry x="340" y="380" width="100" height="60" as="geometry" />
        </mxCell>
        <mxCell id="-D1oLmt3yiWV7h7ndBA1-11" style="edgeStyle=orthogonalEdgeStyle;rounded=0;orthogonalLoop=1;jettySize=auto;html=1;entryX=0.5;entryY=0;entryDx=0;entryDy=0;entryPerimeter=0;" edge="1" parent="1" source="-D1oLmt3yiWV7h7ndBA1-7" target="-D1oLmt3yiWV7h7ndBA1-10">
          <mxGeometry relative="1" as="geometry" />
        </mxCell>
        <mxCell id="-D1oLmt3yiWV7h7ndBA1-12" style="edgeStyle=orthogonalEdgeStyle;rounded=0;orthogonalLoop=1;jettySize=auto;html=1;entryX=0.5;entryY=0;entryDx=0;entryDy=0;entryPerimeter=0;" edge="1" parent="1" source="-D1oLmt3yiWV7h7ndBA1-10" target="-D1oLmt3yiWV7h7ndBA1-2">
          <mxGeometry relative="1" as="geometry" />
        </mxCell>
      </root>
    </mxGraphModel>
  </diagram>
</mxfile>
